<svg width="139" height="143" viewBox="0 0 139 143" fill="none" xmlns="http://www.w3.org/2000/svg">
<g filter="url(#filter0_i_34_218)">
<path fill-rule="evenodd" clip-rule="evenodd" d="M4.60112 23.8404C2.11627 26.0327 1.87911 29.8243 4.0714 32.3092L37.7016 70.4272L1.75736 106.372C-0.585781 108.715 -0.585788 112.514 1.75736 114.857L25.6341 138.734C27.9772 141.077 31.7762 141.077 34.1194 138.734L68.0394 104.813L99.7757 140.785C101.968 143.27 105.76 143.507 108.244 141.315L133.565 118.975C136.05 116.783 136.287 112.991 134.095 110.506L100.465 72.3882L136.409 36.444C138.752 34.1009 138.752 30.3019 136.409 27.9587L112.532 4.082C110.189 1.73885 106.39 1.73885 104.047 4.082L70.1269 38.002L38.3906 2.03057C36.1983 -0.454285 32.4067 -0.691451 29.9219 1.50084L4.60112 23.8404Z" fill="#EB5757"/>
</g>
<defs>
<filter id="filter0_i_34_218" x="0" y="0" width="138.166" height="146.815" filterUnits="userSpaceOnUse" color-interpolation-filters="sRGB">
<feFlood flood-opacity="0" result="BackgroundImageFix"/>
<feBlend mode="normal" in="SourceGraphic" in2="BackgroundImageFix" result="shape"/>
<feColorMatrix in="SourceAlpha" type="matrix" values="0 0 0 0 0 0 0 0 0 0 0 0 0 0 0 0 0 0 127 0" result="hardAlpha"/>
<feOffset dy="4"/>
<feGaussianBlur stdDeviation="2"/>
<feComposite in2="hardAlpha" operator="arithmetic" k2="-1" k3="1"/>
<feColorMatrix type="matrix" values="0 0 0 0 0 0 0 0 0 0 0 0 0 0 0 0 0 0 0.25 0"/>
<feBlend mode="normal" in2="shape" result="effect1_innerShadow_34_218"/>
</filter>
</defs>
</svg>
