<svg width="18" height="19" viewBox="0 0 18 19" fill="none" xmlns="http://www.w3.org/2000/svg">
  <path d="M8.86157 1.57538C4.78314 1.57538 1.47693 5.10199 1.47693 9.4523C1.47693 13.8026 4.78314 17.3292 8.86157 17.3292C12.94 17.3292 16.2462 13.8026 16.2462 9.4523C16.2462 9.05698 16.2189 8.6686 16.1663 8.28893C16.1 7.81201 16.4273 7.35179 16.8792 7.35179C17.2444 7.35179 17.5646 7.62086 17.6201 8.00589C17.6879 8.47745 17.7231 8.96047 17.7231 9.4523C17.7231 14.6727 13.7557 18.9046 8.86157 18.9046C3.96746 18.9046 0 14.6727 0 9.4523C0 4.23194 3.96746 0 8.86157 0C11.1312 0 13.2015 0.910109 14.7693 2.40685V1.31282C14.7693 0.877793 15.0999 0.525128 15.5078 0.525128C15.9156 0.525128 16.2462 0.877793 16.2462 1.31282V4.46359C16.2462 4.89861 15.9156 5.25128 15.5078 5.25128H12.5539C12.1461 5.25128 11.8154 4.89861 11.8154 4.46359C11.8154 4.02856 12.1461 3.67589 12.5539 3.67589H13.8822C12.5646 2.37235 10.8004 1.57538 8.86157 1.57538Z" fill="#FFFFFF" />
</svg>