<svg width="18" height="14" viewBox="0 0 18 14" fill="none" xmlns="http://www.w3.org/2000/svg">
<path d="M11.7227 10.2211C11.43 10.5142 11.4303 10.9891 11.7234 11.2818C12.0165 11.5745 12.4914 11.5742 12.7841 11.2811L17.7807 6.2776C18.0732 5.9847 18.0731 5.5101 17.7804 5.2174L12.7838 0.219721C12.4909 -0.0731989 12.016 -0.0732486 11.7231 0.219621C11.4302 0.512481 11.4301 0.987351 11.723 1.28028L15.443 5H7.6012C6.00642 5 4.79015 5.242 3.71218 5.7645L3.46576 5.89C2.35728 6.4829 1.48286 7.3573 0.89004 8.4658C0.28062 9.6053 0 10.8837 0 12.6012C0 13.0154 0.33579 13.3512 0.75 13.3512C1.16421 13.3512 1.5 13.0154 1.5 12.6012C1.5 11.1174 1.72765 10.0802 2.21276 9.1732C2.66578 8.3261 3.32609 7.6658 4.17316 7.2128C5.01046 6.765 5.95858 6.5365 7.2666 6.5041L7.6012 6.5H15.438L11.7227 10.2211Z" fill="white"/>
</svg>
